<svg width="64" height="64" viewBox="0 0 64 64" fill="none" xmlns="http://www.w3.org/2000/svg">
<rect width="64" height="64" rx="10" fill="white"/>
<path fill-rule="evenodd" clip-rule="evenodd" d="M31.9999 21.207L33.275 19.8371C36.796 16.0543 42.5048 16.0543 46.0258 19.8371C48.7727 22.7883 49.3766 27.1699 47.8377 30.75H38.6666C38.2486 30.75 37.8584 30.9589 37.6265 31.3066L35.3333 34.7465L29.7066 26.3066C29.4748 25.9589 29.0845 25.75 28.6666 25.75C28.2486 25.75 27.8584 25.9589 27.6265 26.3066L24.6643 30.75H16.1622C14.6232 27.1699 15.2272 22.7883 17.974 19.8371C21.4951 16.0543 27.2038 16.0543 30.7248 19.8371L31.9999 21.207ZM17.7182 33.25C17.8013 33.3468 17.8866 33.4422 17.974 33.5361L29.4498 45.8651C30.8582 47.3783 33.1417 47.3783 34.5501 45.8651L46.0258 33.5361C46.1132 33.4422 46.1985 33.3468 46.2816 33.25H39.3356L36.3733 37.6934C36.1415 38.0411 35.7512 38.25 35.3333 38.25C34.9153 38.25 34.525 38.0411 34.2932 37.6934L28.6666 29.2535L26.3733 32.6934C26.1415 33.0411 25.7512 33.25 25.3333 33.25H17.7182Z" fill="#36807F"/>
</svg>
