<svg width="64" height="64" viewBox="0 0 64 64" fill="none" xmlns="http://www.w3.org/2000/svg">
<rect width="64" height="64" rx="10" fill="white"/>
<path d="M16.1286 26.5899C16.389 25.0312 17.0592 23.5693 18.071 22.353C19.0828 21.1367 20.4 20.2095 21.8883 19.666C23.3767 19.1225 24.983 18.9821 26.5435 19.259C28.1041 19.536 29.5631 20.2204 30.7718 21.2426C31.0947 21.5204 31.507 21.6733 31.9336 21.6733C32.3601 21.6733 32.7724 21.5204 33.0953 21.2426C34.7812 19.7562 36.9663 18.9564 39.2165 19.0018C41.4668 19.0473 43.6175 19.9349 45.2416 21.4882C46.8657 23.0414 47.8442 25.1468 47.9829 27.3862C48.1216 29.6255 47.4103 31.8349 45.9903 33.5756C45.0913 34.6735 44.2533 35.8196 43.48 37.0088L39.4158 43.6296C39.1552 44.0512 38.7902 44.3987 38.3557 44.6387C37.9213 44.8788 37.4321 45.0032 36.9354 44.9999V44.9999C36.5474 45.0002 36.1633 44.9225 35.8061 44.7717C35.4488 44.6208 35.1256 44.3998 34.8558 44.1218C34.5861 43.8439 34.3751 43.5146 34.2357 43.1537C34.0962 42.7927 34.0311 42.4075 34.0441 42.021L34.1263 39.4814C34.1353 39.1918 34.086 38.9034 33.9812 38.6332C33.8764 38.3629 33.7184 38.1164 33.5164 37.9081C33.3144 37.6998 33.0726 37.534 32.8052 37.4205C32.5378 37.3069 32.2503 37.248 31.9597 37.2472C31.6685 37.247 31.3802 37.3052 31.1119 37.4183C30.8437 37.5314 30.6009 37.697 30.3981 37.9054C30.1954 38.1138 30.0366 38.3607 29.9314 38.6314C29.8262 38.9022 29.7766 39.1912 29.7856 39.4814L29.8678 42.021C29.8809 42.4075 29.8157 42.7927 29.6763 43.1537C29.5368 43.5146 29.3259 43.8439 29.0561 44.1218C28.7863 44.3998 28.4632 44.6208 28.1059 44.7717C27.7486 44.9225 27.3645 45.0002 26.9765 44.9999C26.4836 44.9993 25.9991 44.8731 25.5689 44.6333C25.1387 44.3934 24.7771 44.0479 24.5186 43.6296L20.4618 37.061C19.684 35.8868 18.8461 34.7533 17.9516 33.6649C17.165 32.6801 16.596 31.5408 16.2818 30.3215C15.9677 29.1023 15.9155 27.8306 16.1286 26.5899V26.5899Z" fill="#36807F"/>
</svg>
