<svg width="64" height="64" viewBox="0 0 64 64" fill="none" xmlns="http://www.w3.org/2000/svg">
<rect width="64" height="64" rx="10" fill="white"/>
<path fill-rule="evenodd" clip-rule="evenodd" d="M15.3043 32.2615C14.4778 30.9435 14 29.3847 14 27.7143C14 23.5033 17.0366 20.0016 21.0395 19.2794C21.7522 16.2528 24.4702 14 27.7143 14C28.9633 14 30.1343 14.3339 31.1429 14.9174V47.974L30.8843 47.88C30.37 49.1244 29.1444 50 27.7143 50C25.8207 50 24.2857 48.465 24.2857 46.5714C24.2857 46.484 24.289 46.3974 24.2954 46.3116C24.2955 46.3112 24.2955 46.3109 24.2955 46.3106C24.3832 45.1515 25.0506 44.1235 26.0631 43.5658C26.4777 43.3374 26.6287 42.8161 26.4003 42.4014C26.1719 41.9868 25.6506 41.8358 25.236 42.0642C23.6062 42.9619 22.5714 44.6761 22.5714 46.5714C19.7311 46.5714 17.4286 44.2689 17.4286 41.4286C17.4286 41.0189 17.4765 40.6205 17.5669 40.2386C16.4348 39.2952 15.7143 37.8746 15.7143 36.2857C15.7143 35.4273 15.9246 34.618 16.2965 33.9066C16.3659 33.7827 16.4095 33.7029 16.4186 33.6864C16.4191 33.6854 16.4197 33.6845 16.4202 33.6836C16.4203 33.6834 16.4203 33.6833 16.4203 33.6833C17.3138 32.1632 18.9663 31.1429 20.857 31.1429C21.873 31.1429 22.8431 31.4371 23.6734 31.9817C24.0692 32.2414 24.6006 32.131 24.8602 31.7351C25.1199 31.3393 25.0094 30.8079 24.6136 30.5483C23.506 29.8218 22.2096 29.4286 20.857 29.4286C18.5734 29.4286 16.5505 30.5449 15.3043 32.2615ZM39.4107 47.984C38.8724 49.1729 37.6757 50 36.2857 50C34.8556 50 33.63 49.1244 33.1157 47.88L32.8571 47.974V14.9174C33.8657 14.3339 35.0367 14 36.2857 14C39.5298 14 42.2478 16.2528 42.9605 19.2794C46.9634 20.0016 50 23.5033 50 27.7143C50 29.9184 49.168 31.9283 47.801 33.4469C46.2321 35.1898 43.9583 36.2857 41.4286 36.2857C40.9552 36.2857 40.5714 36.6695 40.5714 37.1429C40.5714 37.6162 40.9552 38 41.4286 38C44.0628 38 46.4658 37.0097 48.2855 35.3812C48.2856 35.3969 48.2857 35.4127 48.2857 35.4286C48.2857 37.0492 47.3861 38.4598 46.0591 39.1882C46.3873 39.8654 46.5714 40.6255 46.5714 41.4286C46.5714 44.2689 44.2689 46.5714 41.4286 46.5714C41.1257 46.5714 40.8289 46.5452 40.5403 46.495C38.1233 46.0742 36.2857 43.966 36.2857 41.4286C36.2857 40.9552 35.902 40.5714 35.4286 40.5714C34.9552 40.5714 34.5714 40.9552 34.5714 41.4286C34.5714 44.5134 36.6084 47.1224 39.4107 47.984ZM40.5169 28.9304C43.2625 28.3231 44.6145 25.164 43.7095 22.8891C43.5346 22.4492 43.0362 22.2345 42.5963 22.4095C42.1564 22.5845 41.9417 23.0829 42.1167 23.5227C42.654 24.8734 41.7896 26.8932 40.1467 27.2565C39.6845 27.3588 39.3926 27.8164 39.4949 28.2786C39.5971 28.7408 40.0547 29.0326 40.5169 28.9304ZM26.5264 26.7622C26.9886 26.8645 27.4462 26.5726 27.5484 26.1104C27.6507 25.6482 27.3588 25.1906 26.8966 25.0884C25.2537 24.725 24.3893 22.7053 24.9266 21.3546C25.1016 20.9147 24.8869 20.4163 24.447 20.2413C24.0071 20.0664 23.5087 20.2811 23.3337 20.721C22.4288 22.9958 23.7808 26.155 26.5264 26.7622ZM36.4727 37.8244C39.2182 37.2172 40.5703 34.0581 39.6653 31.7832C39.4903 31.3433 38.9919 31.1286 38.5521 31.3036C38.1122 31.4785 37.8975 31.977 38.0724 32.4168C38.6097 33.7675 37.7454 35.7872 36.1024 36.1506C35.6402 36.2528 35.3484 36.7104 35.4506 37.1726C35.5529 37.6349 36.0104 37.9267 36.4727 37.8244ZM28.6149 42.0102C29.0771 42.1124 29.5346 41.8206 29.6369 41.3584C29.7391 40.8961 29.4473 40.4386 28.9851 40.3363C27.3422 39.9729 26.4778 37.9532 27.0151 36.6025C27.1901 36.1627 26.9753 35.6642 26.5355 35.4893C26.0956 35.3143 25.5972 35.529 25.4222 35.9689C24.5173 38.2438 25.8693 41.4029 28.6149 42.0102Z" fill="#36807F"/>
</svg>
